# AST/ASF file generated using VICON BodyLanguage
# -----------------------------------------------
:version 1.10
:name VICON
:units
  mass 1.0
  length 0.45
  angle deg
:documentation
   .ast/.asf automatically generated from VICON data using
   VICON BodyBuilder and BodyLanguage model FoxedUp or BRILLIANT.MOD
:root
   order TX TY TZ RX RY RZ
   axis XYZ
   position 0 0 0  
   orientation 0 0 0 
:bonedata
  begin
     id 1 
     name lhipjoint
     direction 0.606768 -0.715223 0.346827 
     length 2.41543 
     axis 0 0 0  XYZ
  end
  begin
     id 2 
     name lfemur
     direction 0.34202 -0.939693 0  
     length 7.2778  
     axis 0 0 20  XYZ
    dof rx ry rz
    limits (-160.0 20.0)
           (-70.0 70.0)
           (-60.0 70.0)
  end
  begin
     id 3 
     name ltibia
     direction 0.34202 -0.939693 0   
     length 7.61811   
     axis 0 0 20   XYZ
    dof rx
    limits (-10.0 170.0)
  end
  begin
     id 4 
     name lfoot
     direction 0.0823924 -0.226371 0.97055   
     length 2.33618   
     axis -90 7.62852e-016 20   XYZ
    dof rx rz
    limits (-45.0 90.0)
           (-70.0 20.0)
  end
  begin
     id 5 
     name ltoes
     direction 1.53554e-011 -4.21934e-011 1   
     length 1.17015   
     axis -90 7.62852e-016 20   XYZ
    dof rx
    limits (-90.0 20.0)
  end
  begin
     id 6 
     name rhipjoint
     direction -0.6077 -0.714582 0.346516   
     length 2.4176  
     axis 0 0 0  XYZ 
  end
  begin
     id 7 
     name rfemur
     direction -0.34202 -0.939693 0   
     length 7.28127   
     axis 0 0 -20   XYZ
    dof rx ry rz
    limits (-160.0 20.0)
           (-70.0 70.0)
           (-70.0 60.0)
  end
  begin
     id 8 
     name rtibia
     direction -0.34202 -0.939693 0   
     length 7.77648   
     axis 0 0 -20   XYZ
    dof rx
    limits (-10.0 170.0)
 end
 begin
     id 9 
     name rfoot
     direction -0.0809463 -0.222398 0.97159   
     length 2.37533  
     axis -90 -7.62852e-016 -20   XYZ
    dof rx rz
    limits (-45.0 90.0)
           (-20.0 70.0)
  end
  begin
     id 10 
     name rtoes
     direction -1.53568e-011 -4.21714e-011 1   
     length 1.18972   
     axis -90 -7.62852e-016 -20   XYZ
    dof rx
    limits (-90.0 20.0)
  end
  begin
     id 11 
     name lowerback
     direction 0.010968 0.991932 -0.126297   
     length 2.21698   
     axis 0 0 0   XYZ
    dof rx ry rz
    limits (-20.0 45.0)
           (-30.0 30.0)
           (-30.0 30.0)
  end
  begin
     id 12 
     name upperback
     direction 0.0167007 0.997503 -0.0686276   
     length 2.22371   
     axis 0 0 0   XYZ
    dof rx ry rz
    limits (-20.0 45.0)
           (-30.0 30.0)
           (-30.0 30.0)
  end
  begin
     id 13 
     name thorax
     direction 0.0111721 0.999885 -0.0102878   
     length 2.25242   
     axis 0 0 0   XYZ
    dof rx ry rz
    limits (-20.0 45.0)
           (-30.0 30.0)
           (-30.0 30.0)
  end
  begin
     id 14 
     name lowerneck
     direction -0.0120265 0.990428 0.137508   
     length 1.57674   
     axis 0 0 0   XYZ
    dof rx ry rz
    limits (-20.0 45.0)
           (-30.0 30.0)
           (-30.0 30.0)
  end
  begin
     id 15 
     name upperneck
     direction 0.0175669 0.998907 0.0433089   
     length 1.5618   
     axis 0 0 0   XYZ
    dof rx ry rz
    limits (-20.0 45.0)
           (-30.0 30.0)
           (-30.0 30.0)
  end
  begin
     id 16
     name head
     direction 0.00754609 0.99997 0.00185367  
     length 1.60579  
     axis 0 0 0   XYZ
    dof rx ry rz
    limits (-20.0 45.0)
           (-30.0 30.0)
           (-30.0 30.0)
  end
  begin
     id 17 
     name lclavicle
     direction 0.885866 0.429166 -0.176231  
     length 3.44967  
     axis 0 0 0   XYZ
    dof ry rz
    limits (-20.0 10.0)
           (0.0 20.0)
  end
  begin
     id 18 
     name lhumerus
     direction 1 -4.48973e-011 -1.90255e-027   
     length 5.20607   
     axis 180 -30 -90   XYZ
    dof rx ry rz
    limits (-60.0 90.0)
           (-90.0 90.0)
           (-90.0 90.0)
  end
  begin
     id 19
     name lradius
     direction 1 -4.48956e-011 9.87925e-027   
     length 3.39961   
     axis 180 -30 -90   XYZ
    dof rx
    limits (-10.0 170.0)
  end
  begin
     id 20
     name lwrist
     direction 1 -4.48985e-011 1.73247e-026   
     length 1.6998   
     axis -9.60847e-015 90 90   XYZ
    dof ry
    limits (-180.0 0.0)
 end
  begin
     id 21 
     name lhand
     direction 1 -4.48798e-011 3.46119e-026   
     length 0.519693   
     axis -2.21073e-014 90 90   XYZ
    dof rx rz
    limits (-90.0 90.0)
           (-45.0 45.0)
  end
  begin
     id 22 
     name lfingers
     direction 1 -4.48938e-011 6.92797e-026   
     length 0.41899   
     axis -4.42155e-014 90 90   XYZ
    dof rx
    limits (0.0 90.0)
  end
  begin
     id 23
     name lthumb
     direction 0.707107 -6.34952e-011 0.707107   
     length 0.601588   
     axis -90 45 6.0103e-014   XYZ
    dof rx rz
    limits (-45.0 45.0)
           (-45.0 45.0)
  end
  begin
     id 24 
     name rclavicle
     direction -0.866736 0.456792 -0.200276   
     length 3.45032  
     axis 0 0 0   XYZ 
    dof ry rz
    limits (-10.0 20.0)
           (-20.0 0.0)
  end
  begin
     id 25 
     name rhumerus
     direction -1 -4.4897e-011 8.65094e-028  
     length 5.32214   
     axis 180 30 90   XYZ
    dof rx ry rz
    limits (-90.0 60.0)
           (-90.0 90.0)
           (-90.0 90.0)
  end
  begin
     id 26 
     name rradius
     direction -1 -4.48987e-011 1.08427e-026   
     length 3.51208   
     axis 180 30 90   XYZ
    dof rx
    limits (-10.0 170.0)
  end
  begin
     id 27 
     name rwrist
     direction -1 -4.48961e-011 1.73222e-026   
     length 1.75604   
     axis -9.60847e-015 -90 -90   XYZ
    dof ry
    limits (-180.0 0.0)
  end
  begin
     id 28
     name rhand
     direction -1 -4.48895e-011 3.46314e-026   
     length 0.586681   
     axis -2.21073e-014 -90 -90   XYZ
    dof rx rz
    limits (-90.0 90.0)
           (-45.0 45.0)
  end
  begin
     id 29
     name rfingers
     direction -1 -4.48968e-011 6.92916e-026   
     length 0.472997   
     axis -4.42155e-014 -90 -90   XYZ
    dof rx
    limits (0.0 90.0)
  end
  begin
     id 30
     name rthumb
     direction -0.707107 -6.34848e-011 0.707107   
     length 0.679133   
     axis -90 -45 -6.0103e-014   XYZ
    dof rx rz
    limits (-45.0 45.0)
           (-45.0 45.0)
  end
:hierarchy
  begin
    root lhipjoint rhipjoint lowerback
    lhipjoint lfemur
    lfemur ltibia
    ltibia lfoot
    lfoot ltoes
    rhipjoint rfemur
    rfemur rtibia
    rtibia rfoot
    rfoot rtoes
    lowerback upperback
    upperback thorax
    thorax lowerneck lclavicle rclavicle
    lowerneck upperneck
    upperneck head
    lclavicle lhumerus
    lhumerus lradius
    lradius lwrist
    lwrist lhand lthumb
    lhand lfingers
    rclavicle rhumerus
    rhumerus rradius
    rradius rwrist
    rwrist rhand rthumb
    rhand rfingers
  end

#!OML:ASF H:\Dans Jumps\Project 1\Capture day 1\Session 1\subject.ASF
:FULLY-SPECIFIED
:DEGREES
19
root 0.550708 17.553 -13.8983 7.37616 0.0143327 -1.38365
lowerback -2.16198 -0.633368 0.00466075
upperback 3.09988 -0.920901 1.87774
thorax 4.44018 -0.492225 1.88125
lowerneck -14.3725 0.369971 -1.9982
upperneck 29.3421 0.920193 0.514991
head 12.0014 0.252521 0.669679
rclavicle 5.96354e-016 -7.95139e-016
rhumerus -24.4136 -16.8892 -77.6282
rradius 24.7328
rwrist 32.4445
rhand -18.2482 -26.2059
rfingers 7.12502
rthumb 8.03081 -56.0333
lclavicle 5.96354e-016 -7.95139e-016
lhumerus -22.2903 1.91673 85.2567
lradius 19.6287
lwrist 3.88124
lhand -23.9433 -3.86931
lfingers 7.12502
lthumb 2.53215 26.0954
rfemur -14.4505 -3.24876 20.8266
rtibia 21.8394
rfoot -14.1291 -2.60992
rtoes 9.83197
lfemur -14.1635 8.87462 -19.5895
ltibia 19.4811
lfoot -11.4694 3.33428
ltoes -1.76569
20
root 0.552554 17.5528 -13.898 7.37948 -0.00686677 -1.38879
lowerback -2.17021 -0.62871 0.00866999
upperback 3.09901 -0.914844 1.87549
thorax 4.44364 -0.489046 1.87697
lowerneck -14.3712 0.370098 -1.9964
upperneck 29.3452 0.920312 0.513373
head 12.0023 0.252515 0.668788
rclavicle -1.09332e-015 -7.95139e-016
rhumerus -24.4119 -16.8964 -77.6325
rradius 24.7221
rwrist 32.4608
rhand -18.2411 -26.2129
rfingers 7.12502
rthumb 8.03767 -56.0401
lclavicle -1.09332e-015 -7.95139e-016
lhumerus -22.2929 1.9327 85.242
lradius 19.6227
lwrist 3.87497
lhand -23.9684 -3.92063
lfingers 7.12502
lthumb 2.50786 26.0444
rfemur -14.455 -3.23155 20.8241
rtibia 21.8374
rfoot -14.1264 -2.60581
rtoes 9.8294
lfemur -14.1647 8.88164 -19.5916
ltibia 19.4836
lfoot -11.469 3.34883
ltoes -1.77978
21
root 0.554342 17.5527 -13.8978 7.38167 -0.0255001 -1.39382
lowerback -2.17486 -0.624155 0.0129539
upperback 3.09788 -0.908876 1.87289
thorax 4.44479 -0.485887 1.8722
lowerneck -14.377 0.369129 -1.99574
upperneck 29.3535 0.918699 0.514031
head 12.0069 0.251845 0.668774
rclavicle 3.18055e-015 -7.95139e-015
rhumerus -24.411 -16.9092 -77.637
rradius 24.7124
rwrist 32.4803
rhand -18.2271 -26.2334
rfingers 7.12502
rthumb 8.05118 -56.0601
lclavicle 3.18055e-015 -7.95139e-015
lhumerus -22.2955 1.94252 85.2287
lradius 19.6198
lwrist 3.87637
lhand -23.9848 -3.9428
lfingers 7.12502
lthumb 2.49202 26.0224
rfemur -14.4579 -3.21597 20.8222
rtibia 21.8336
rfoot -14.1214 -2.60365
rtoes 9.81977
lfemur -14.1668 8.8864 -19.5931
ltibia 19.4887
lfoot -11.4691 3.36126
ltoes -1.7842
22
root 0.556103 17.5526 -13.8976 7.38187 -0.0436206 -1.39891
lowerback -2.17676 -0.618926 0.0181019
upperback 3.09661 -0.901989 1.86968
thorax 4.44417 -0.482222 1.86638
lowerneck -14.4021 0.362985 -2.03185
upperneck 29.3804 0.910188 0.548241
head 12.0224 0.24813 0.68693
rclavicle -7.95139e-016 8.34896e-015
rhumerus -24.4096 -16.9269 -77.6417
rradius 24.7008
rwrist 32.5018
rhand -18.2114 -26.2552
rfingers 7.12502
rthumb 8.0663 -56.0813
lclavicle -7.95139e-016 8.34896e-015
lhumerus -22.2981 1.94891 85.2164
lradius 19.617
lwrist 3.8794
lhand -23.9955 -3.95494
lfingers 7.12502
lthumb 2.48168 26.0104
rfemur -14.458 -3.203 20.8204
rtibia 21.8288
rfoot -14.1167 -2.59852
rtoes 9.81763
lfemur -14.1676 8.8903 -19.5939
ltibia 19.4952
lfoot -11.4709 3.37169
ltoes -1.76318
23
root 0.557787 17.5526 -13.8976 7.38102 -0.0606591 -1.40561
lowerback -2.17639 -0.613801 0.0244922
upperback 3.09502 -0.895289 1.86719
thorax 4.44193 -0.478617 1.86063
lowerneck -14.4431 0.352753 -2.0921
upperneck 29.423 0.896676 0.60318
head 12.0474 0.241997 0.71653
rclavicle -3.97569e-015 9.93923e-015
rhumerus -24.4096 -16.9446 -77.6466
rradius 24.691
rwrist 32.5194
rhand -18.198 -26.2704
rfingers 7.12502
rthumb 8.07925 -56.096
lclavicle -3.97569e-015 9.93923e-015
lhumerus -22.2989 1.9412 85.2079
lradius 19.6087
lwrist 3.8938
lhand -24.0047 -3.9574
lfingers 7.12502
lthumb 2.47285 26.008
rfemur -14.4568 -3.18993 20.8208
rtibia 21.8236
rfoot -14.1116 -2.59413
rtoes 9.8214
lfemur -14.1682 8.89483 -19.5925
ltibia 19.502
lfoot -11.4719 3.3799
ltoes -1.73678
24
root 0.559446 17.5526 -13.8976 7.37862 -0.0785532 -1.41117
lowerback -2.17376 -0.608898 0.0290318
upperback 3.09298 -0.888806 1.8655
thorax 4.43798 -0.475189 1.85675
lowerneck -14.48 0.34366 -2.15104
upperneck 29.4626 0.885181 0.655367
head 12.0704 0.23659 0.745145
rclavicle 1.98785e-016 -8.34896e-015
rhumerus -24.411 -16.9597 -77.6509
rradius 24.6832
rwrist 32.5324
rhand -18.2006 -26.2637
rfingers 7.12502
rthumb 8.07673 -56.0894
lclavicle 1.98785e-016 -8.34896e-015
lhumerus -22.3008 1.92171 85.2041
lradius 19.5979
lwrist 3.91815
lhand -24.0102 -3.94082
lfingers 7.12502
lthumb 2.46753 26.0246
rfemur -14.4537 -3.17878 20.8198
rtibia 21.8186
rfoot -14.1075 -2.58697
rtoes 9.82758
lfemur -14.1673 8.90108 -19.5924
ltibia 19.5093
lfoot -11.4735 3.38744
ltoes -1.7051
25
root 0.561122 17.5526 -13.8976 7.3745 -0.0952189 -1.41618
lowerback -2.17023 -0.604768 0.0337974
upperback 3.09049 -0.883352 1.86396
thorax 4.43309 -0.472262 1.85284
lowerneck -14.5008 0.337476 -2.1973
upperneck 29.4898 0.877375 0.696066
head 12.0852 0.232894 0.767626
rclavicle -1.08338e-014 4.37326e-015
rhumerus -24.4155 -16.9734 -77.655
rradius 24.6771
rwrist 32.5429
rhand -18.2052 -26.2464
rfingers 7.12502
rthumb 8.07227 -56.0722
lclavicle -1.08338e-014 4.37326e-015
lhumerus -22.3034 1.89784 85.2023
lradius 19.583
lwrist 3.94173
lhand -24.0105 -3.90704
lfingers 7.12502
lthumb 2.46726 26.0584
rfemur -14.4482 -3.1718 20.818
rtibia 21.8139
rfoot -14.1059 -2.57706
rtoes 9.83694
lfemur -14.1645 8.90914 -19.593
ltibia 19.5166
lfoot -11.4768 3.39295
ltoes -1.67752
26
root 0.562727 17.5526 -13.8975 7.37066 -0.11223 -1.42252
lowerback -2.1663 -0.601568 0.0385988
upperback 3.08801 -0.879209 1.86417
thorax 4.42806 -0.47002 1.85065
lowerneck -14.5254 0.331895 -2.24548
upperneck 29.5178 0.871643 0.734979
head 12.101 0.229663 0.790108
rclavicle -7.95139e-015 1.39149e-014
rhumerus -24.4189 -16.9784 -77.6607
rradius 24.6731
rwrist 32.5472
rhand -18.2109 -26.2279
rfingers 7.12502
rthumb 8.0668 -56.054
lclavicle -7.95139e-015 1.39149e-014
lhumerus -22.3057 1.88484 85.2005
lradius 19.5646
lwrist 3.9504
lhand -24.0059 -3.86927
lfingers 7.12502
lthumb 2.47163 26.0962
rfemur -14.4434 -3.16493 20.8179
rtibia 21.8098
rfoot -14.1047 -2.56662
rtoes 9.83855
lfemur -14.1617 8.91706 -19.5923
ltibia 19.5234
lfoot -11.4793 3.40172
ltoes -1.66651
27
root 0.564318 17.5525 -13.8974 7.36699 -0.130403 -1.42764
lowerback -2.16192 -0.599169 0.0415017
upperback 3.08482 -0.876072 1.86528
thorax 4.42213 -0.468351 1.85039
lowerneck -14.5328 0.328817 -2.28248
upperneck 29.531 0.869783 0.761043
head 12.1075 0.227901 0.806178
rclavicle 5.46658e-015 -2.78299e-015
rhumerus -24.4225 -16.9808 -77.6656
rradius 24.6686
rwrist 32.5511
rhand -18.2204 -26.2035
rfingers 7.12502
rthumb 8.05762 -56.0299
lclavicle 5.46658e-015 -2.78299e-015
lhumerus -22.3121 1.88107 85.1987
lradius 19.5505
lwrist 3.94759
lhand -23.9947 -3.81603
lfingers 7.12502
lthumb 2.48248 26.1493
rfemur -14.4387 -3.15818 20.8162
rtibia 21.8063
rfoot -14.1045 -2.55473
rtoes 9.8395
lfemur -14.1581 8.92365 -19.5932
ltibia 19.5294
lfoot -11.4812 3.41412
ltoes -1.67054
28
root 0.565801 17.5525 -13.8974 7.36524 -0.149362 -1.43282
lowerback -2.15873 -0.596212 0.0435477
upperback 3.08092 -0.872167 1.8667
thorax 4.41611 -0.466332 1.85098
lowerneck -14.5227 0.329681 -2.29159
upperneck 29.5257 0.872965 0.761922
head 12.1032 0.228455 0.808434
rclavicle 1.09332e-015 4.77083e-015
rhumerus -24.4249 -16.979 -77.6719
rradius 24.6641
rwrist 32.5515
rhand -18.2351 -26.1813
rfingers 7.12502
rthumb 8.04344 -56.0082
lclavicle 1.09332e-015 4.77083e-015
lhumerus -22.3215 1.88604 85.1956
lradius 19.5394
lwrist 3.92639
lhand -23.9787 -3.7627
lfingers 7.12502
lthumb 2.49791 26.2024
rfemur -14.4368 -3.1465 20.8149
rtibia 21.8036
rfoot -14.1044 -2.54674
rtoes 9.84897
lfemur -14.1563 8.92761 -19.5938
ltibia 19.5343
lfoot -11.4808 3.42981
ltoes -1.67462
29
root 0.567172 17.5524 -13.8973 7.36569 -0.169455 -1.43558
lowerback -2.15751 -0.593031 0.0419601
upperback 3.0765 -0.867807 1.86775
thorax 4.41072 -0.464199 1.85323
lowerneck -14.4994 0.334866 -2.27049
upperneck 29.5073 0.881526 0.736654
head 12.0912 0.23155 0.796234
rclavicle -2.08724e-015 7.95139e-015
rhumerus -24.4269 -16.9753 -77.6793
rradius 24.6621
rwrist 32.5488
rhand -18.2487 -26.1673
rfingers 7.12502
rthumb 8.0303 -55.9947
lclavicle -2.08724e-015 7.95139e-015
lhumerus -22.3348 1.89409 85.1919
lradius 19.5341
lwrist 3.89722
lhand -23.9545 -3.69716
lfingers 7.12502
lthumb 2.52128 26.2677
rfemur -14.4384 -3.13055 20.8113
rtibia 21.8021
rfoot -14.1027 -2.54254
rtoes 9.85098
lfemur -14.1559 8.92705 -19.5968
ltibia 19.5378
lfoot -11.4778 3.45041
ltoes -1.68502
